<svg width="37" height="36" viewBox="0 0 37 36" fill="none" xmlns="http://www.w3.org/2000/svg">
<g clip-path="url(#clip0_3267_1995)">
<path d="M0.529297 18C0.529297 8.0589 8.5882 0 18.5293 0C28.4704 0 36.5293 8.0589 36.5293 18C36.5293 27.9411 28.4704 36 18.5293 36C8.5882 36 0.529297 27.9411 0.529297 18Z" fill="#3B5998"/>
<path d="M20.4062 28.5836V18.7907H23.1095L23.4678 15.416H20.4062L20.4109 13.7269C20.4109 12.8467 20.4945 12.3751 21.7587 12.3751H23.4487V9H20.745C17.4974 9 16.3544 10.6371 16.3544 13.3902V15.4163H14.3301V18.791H16.3544V28.5836H20.4062Z" fill="white"/>
</g>
<defs>
<clipPath id="clip0_3267_1995">
<rect width="36" height="36" fill="white" transform="translate(0.529297)"/>
</clipPath>
</defs>
</svg>
