<svg width="37" height="36" viewBox="0 0 37 36" fill="none" xmlns="http://www.w3.org/2000/svg">
<g clip-path="url(#clip0_3267_2006)">
<path d="M18.5269 35.7256C28.3286 35.7256 36.2744 27.7798 36.2744 17.978C36.2744 8.17633 28.3286 0.230469 18.5269 0.230469C8.72516 0.230469 0.779297 8.17633 0.779297 17.978C0.779297 27.7798 8.72516 35.7256 18.5269 35.7256Z" fill="url(#paint0_linear_3267_2006)"/>
<path d="M24.8104 13.1759C25.5718 13.1759 26.1891 12.5587 26.1891 11.7972C26.1891 11.0357 25.5718 10.4185 24.8104 10.4185C24.0489 10.4185 23.4316 11.0357 23.4316 11.7972C23.4316 12.5587 24.0489 13.1759 24.8104 13.1759Z" fill="white"/>
<path d="M18.6805 12.1865C15.4869 12.1865 12.8887 14.7847 12.8887 17.9782C12.8887 21.1718 15.4869 23.7699 18.6805 23.7699C21.874 23.7699 24.4721 21.1718 24.4721 17.9782C24.4721 14.7847 21.874 12.1865 18.6805 12.1865ZM18.6805 21.6882C16.6347 21.6882 14.9704 20.024 14.9704 17.9782C14.9704 15.9325 16.6347 14.2683 18.6805 14.2683C20.7262 14.2683 22.3903 15.9325 22.3903 17.9782C22.3903 20.024 20.7262 21.6882 18.6805 21.6882Z" fill="white"/>
<path d="M23.2795 29.737H13.8902C9.99501 29.737 6.82617 26.5682 6.82617 22.673V13.2833C6.82617 9.38803 9.995 6.21924 13.8902 6.21924H23.2795C27.1747 6.21924 30.3439 9.38803 30.3439 13.2833V22.673C30.3439 26.5682 27.1747 29.737 23.2795 29.737ZM13.8902 8.43174C11.2149 8.43174 9.03867 10.608 9.03867 13.2833V22.673C9.03867 25.3483 11.2149 27.5245 13.8902 27.5245H23.2795C25.9548 27.5245 28.1314 25.3483 28.1314 22.673V13.2833C28.1314 10.608 25.9548 8.43174 23.2795 8.43174H13.8902V8.43174Z" fill="white"/>
</g>
<defs>
<linearGradient id="paint0_linear_3267_2006" x1="3.393" y1="33.1119" x2="41.7473" y2="-5.24236" gradientUnits="userSpaceOnUse">
<stop offset="0.0011" stop-color="#FBE18A"/>
<stop offset="0.2094" stop-color="#FCBB45"/>
<stop offset="0.3765" stop-color="#F75274"/>
<stop offset="0.5238" stop-color="#D53692"/>
<stop offset="0.7394" stop-color="#8F39CE"/>
<stop offset="1" stop-color="#5B4FE9"/>
</linearGradient>
<clipPath id="clip0_3267_2006">
<rect width="36" height="36" fill="white" transform="translate(0.529297)"/>
</clipPath>
</defs>
</svg>
