<svg width="38" height="36" viewBox="0 0 38 36" fill="none" xmlns="http://www.w3.org/2000/svg">
<g clip-path="url(#clip0_3267_1998)">
<path d="M0.529297 18C0.529297 8.0589 8.81206 0 19.0293 0C29.2465 0 37.5293 8.0589 37.5293 18C37.5293 27.9411 29.2465 36 19.0293 36C8.81206 36 0.529297 27.9411 0.529297 18Z" fill="#55ACEE"/>
<path d="M18.4752 14.6304L18.5141 15.2533L17.867 15.177C15.5119 14.8847 13.4544 13.8932 11.7074 12.228L10.8534 11.4018L10.6334 12.0119C10.1675 13.3721 10.4651 14.8084 11.4357 15.7744C11.9533 16.3083 11.8368 16.3846 10.9439 16.0668C10.6334 15.9651 10.3616 15.8888 10.3358 15.9269C10.2452 16.016 10.5558 17.1726 10.8016 17.6303C11.138 18.2658 11.8239 18.8886 12.5744 19.2572L13.2085 19.5496L12.4579 19.5623C11.7333 19.5623 11.7074 19.575 11.7851 19.8419C12.0439 20.6681 13.0661 21.5453 14.2049 21.9266L15.0072 22.1935L14.3084 22.6002C13.2732 23.185 12.0568 23.5154 10.8404 23.5409C10.2581 23.5536 9.7793 23.6044 9.7793 23.6426C9.7793 23.7697 11.358 24.4815 12.2768 24.7611C15.0331 25.5873 18.307 25.2314 20.7657 23.8205C22.5126 22.8164 24.2596 20.8207 25.0748 18.8886C25.5148 17.859 25.9548 15.9778 25.9548 15.0753C25.9548 14.4906 25.9935 14.4143 26.7182 13.7153C27.1452 13.3085 27.5464 12.8636 27.6241 12.7365C27.7534 12.495 27.7406 12.495 27.0806 12.7111C25.9807 13.0924 25.8253 13.0415 26.3689 12.4696C26.77 12.0628 27.2488 11.3255 27.2488 11.1095C27.2488 11.0714 27.0547 11.1349 26.8347 11.2493C26.6018 11.3764 26.0842 11.567 25.6959 11.6815L24.9972 11.8976L24.3631 11.4781C24.0137 11.2493 23.5219 10.9951 23.2632 10.9188C22.6032 10.7408 21.5939 10.7663 20.9986 10.9697C19.381 11.5417 18.3587 13.0161 18.4752 14.6304Z" fill="white"/>
</g>
<defs>
<clipPath id="clip0_3267_1998">
<rect width="37" height="36" fill="white" transform="translate(0.529297)"/>
</clipPath>
</defs>
</svg>
